<svg width="40" height="40" viewBox="0 0 40 40" fill="none" xmlns="http://www.w3.org/2000/svg">
<path opacity="0.4" d="M20.0003 36.6668C10.8087 36.6668 3.33366 29.1902 3.33366 20.0002C3.33366 10.8102 10.8087 3.3335 20.0003 3.3335C29.1903 3.3335 36.667 10.8102 36.667 20.0002C36.667 29.1902 29.1903 36.6668 20.0003 36.6668Z" fill="#3A2110" fill-opacity="0.5"/>
<path d="M22.4044 27.0346C22.086 27.0346 21.766 26.913 21.5227 26.6696L15.711 20.8863C15.476 20.6513 15.3444 20.333 15.3444 19.9996C15.3444 19.668 15.476 19.3496 15.711 19.1146L21.5227 13.328C22.011 12.8413 22.801 12.8413 23.2894 13.3313C23.776 13.8213 23.7744 14.613 23.286 15.0996L18.3644 19.9996L23.286 24.8996C23.7744 25.3863 23.776 26.1763 23.2894 26.6663C23.046 26.913 22.7244 27.0346 22.4044 27.0346Z" fill="#3A2110" fill-opacity="0.5"/>
</svg>
