<svg width="40" height="40" viewBox="0 0 40 40" fill="none" xmlns="http://www.w3.org/2000/svg">
<circle cx="20" cy="20" r="20" fill="#9F8772" fill-opacity="0.64"/>
<path opacity="0.4" d="M16.2025 21.1904L12.5033 21.5176C11.6731 21.5176 11 20.8379 11 19.9997C11 19.1614 11.6731 18.4818 12.5033 18.4818L16.2025 18.8089C16.8537 18.8089 17.3817 19.3421 17.3817 19.9997C17.3817 20.6584 16.8537 21.1904 16.2025 21.1904Z" fill="#FFFDFB"/>
<path d="M28.6247 21.1302C28.5669 21.1885 28.3509 21.4353 28.148 21.6402C26.9644 22.9234 23.8739 25.0218 22.2572 25.664C22.0117 25.7665 21.391 25.9846 21.0583 26C20.7408 26 20.4375 25.9262 20.1485 25.7808C19.7874 25.577 19.4994 25.2554 19.3401 24.8764C19.2387 24.6143 19.0794 23.8267 19.0794 23.8124C18.9212 22.9521 18.835 21.5531 18.835 20.0066C18.835 18.535 18.9212 17.1933 19.051 16.3187C19.0652 16.3033 19.2245 15.3262 19.3979 14.9914C19.7154 14.3789 20.3361 14 21.0005 14H21.0583C21.4914 14.0143 22.4012 14.3943 22.4012 14.4076C23.9317 15.0498 26.9491 17.0468 28.1622 18.3742C28.1622 18.3742 28.5047 18.7156 28.6531 18.9282C28.8844 19.2344 29 19.6134 29 19.9923C29 20.4153 28.8702 20.8085 28.6247 21.1302Z" fill="#FFFDFB"/>
</svg>
