<svg width="72" height="72" viewBox="0 0 72 72" fill="none" xmlns="http://www.w3.org/2000/svg">
<circle cx="36" cy="36" r="35.5" fill="#FFFDFB" stroke="#3A2110"/>
<path d="M21.3257 50.9237C21.6121 51.0799 28.4277 54.75 36 54.75C44.2038 54.75 50.4353 51.0676 50.6966 50.9109C50.7891 50.8554 50.8657 50.7769 50.9189 50.6829C50.9721 50.589 51 50.4829 51 50.375C51 45.3287 49.4526 40.7109 46.6429 37.3717C44.6774 35.0358 42.2113 33.4436 39.4914 32.7106C41.1564 31.9183 42.5023 30.5832 43.3081 28.9247C44.1139 27.2662 44.3316 25.383 43.9255 23.5844C43.5193 21.7858 42.5135 20.1788 41.0732 19.0275C39.6329 17.8762 37.8439 17.249 36 17.249C34.1561 17.249 32.3671 17.8762 30.9268 19.0275C29.4865 20.1788 28.4807 21.7858 28.0746 23.5844C27.6684 25.383 27.8861 27.2662 28.6919 28.9247C29.4977 30.5832 30.8436 31.9183 32.5086 32.7106C29.7887 33.4436 27.3226 35.036 25.3571 37.3717C22.5474 40.7109 21 45.3287 21 50.375C21 50.4873 21.0302 50.5975 21.0876 50.694C21.1449 50.7906 21.2271 50.8699 21.3257 50.9237ZM29.125 25.375C29.125 24.0153 29.5282 22.686 30.2836 21.5555C31.0391 20.4249 32.1128 19.5437 33.3691 19.0233C34.6253 18.503 36.0076 18.3668 37.3412 18.6321C38.6749 18.8974 39.8999 19.5522 40.8614 20.5136C41.8228 21.4751 42.4776 22.7001 42.7429 24.0338C43.0082 25.3674 42.872 26.7497 42.3517 28.0059C41.8313 29.2622 40.9501 30.3359 39.8195 31.0914C38.689 31.8468 37.3597 32.25 36 32.25C34.1773 32.2479 32.4298 31.5229 31.1409 30.2341C29.8521 28.9452 29.1271 27.1977 29.125 25.375ZM26.3135 38.1765C28.8516 35.1608 32.2913 33.5 36 33.5C39.7087 33.5 43.1484 35.1608 45.6865 38.1765C48.2397 41.2107 49.6752 45.4015 49.7472 50.0104C48.4098 50.7344 42.8522 53.5 36 53.5C29.6633 53.5 23.6953 50.718 22.2531 49.9956C22.3281 45.3924 23.763 41.2075 26.3135 38.1765Z" fill="#3A2110"/>
</svg>
