<svg width="32" height="32" viewBox="0 0 32 32" fill="none" xmlns="http://www.w3.org/2000/svg">
<circle cx="16" cy="16" r="16" fill="#EEDBC9"/>
<path opacity="0.4" d="M21.0953 14.3258C21.0953 14.3712 20.74 18.865 20.5371 20.7563C20.41 21.9169 19.6618 22.6209 18.5394 22.6409C17.6771 22.6602 16.8329 22.6669 16.0024 22.6669C15.1206 22.6669 14.2583 22.6602 13.4212 22.6409C12.3365 22.6149 11.5876 21.8969 11.467 20.7563C11.2583 18.8583 10.9095 14.3712 10.903 14.3258C10.8965 14.1892 10.9406 14.0592 11.03 13.9538C11.1182 13.8565 11.2453 13.7979 11.3789 13.7979H20.6259C20.7588 13.7979 20.8794 13.8565 20.9747 13.9538C21.0635 14.0592 21.1083 14.1892 21.0953 14.3258Z" fill="#3A2110"/>
<path d="M22 11.9847C22 11.7107 21.7841 11.4961 21.5247 11.4961H19.5809C19.1854 11.4961 18.8418 11.2148 18.7536 10.8181L18.6447 10.3321C18.4923 9.74482 17.9665 9.3335 17.3765 9.3335H14.6242C14.0277 9.3335 13.507 9.74482 13.3488 10.3641L13.247 10.8188C13.1582 11.2148 12.8146 11.4961 12.4197 11.4961H10.4759C10.2159 11.4961 10 11.7107 10 11.9847V12.2381C10 12.5054 10.2159 12.7267 10.4759 12.7267H21.5247C21.7841 12.7267 22 12.5054 22 12.2381V11.9847Z" fill="#3A2110"/>
</svg>
