<svg width="40" height="40" viewBox="0 0 40 40" fill="none" xmlns="http://www.w3.org/2000/svg">
<path d="M20.0001 39.2309C30.6209 39.2309 39.2308 30.6209 39.2308 20.0001C39.2308 9.3792 30.6209 0.769287 20.0001 0.769287C9.3792 0.769287 0.769287 9.3792 0.769287 20.0001C0.769287 30.6209 9.3792 39.2309 20.0001 39.2309Z" fill="#E0CAB6"/>
<path d="M20 39.2309C29.3463 39.2309 36.923 30.6209 36.923 20.0001C36.923 9.3792 29.3463 0.769287 20 0.769287C10.6536 0.769287 3.0769 9.3792 3.0769 20.0001C3.0769 30.6209 10.6536 39.2309 20 39.2309Z" fill="#FFF0E1"/>
<path d="M3.07702 20.0001C3.07702 9.37921 10.6537 0.769287 20.0001 0.769287C9.37921 0.769287 0.769287 9.37921 0.769287 20.0001C0.769287 30.6209 9.37921 39.2309 20.0001 39.2309C10.6537 39.2309 3.07702 30.6209 3.07702 20.0001Z" fill="white"/>
<path d="M20 40C8.9543 40 0 31.0457 0 20C0 8.9543 8.9543 0 20 0C31.0457 0 40 8.9543 40 20C39.9877 31.0405 31.0405 39.9877 20 40ZM20 1.53844C9.80398 1.53844 1.53844 9.80398 1.53844 20C1.53844 30.196 9.80398 38.4616 20 38.4616C30.196 38.4616 38.4616 30.196 38.4616 20C38.4498 9.80883 30.1912 1.55016 20 1.53844Z" fill="#9F8772"/>
<path d="M19.9999 6.94446C19.6931 6.94446 19.4443 7.19321 19.4443 7.50001V27.5C19.4443 27.8068 19.6931 28.0556 19.9999 28.0556C20.3067 28.0556 20.5554 27.8068 20.5554 27.5V7.50001C20.5554 7.19321 20.3067 6.94446 19.9999 6.94446Z" fill="url(#paint0_linear)"/>
<path d="M19.9999 29.1666C19.6931 29.1666 19.4443 29.4154 19.4443 29.7222V30.8333C19.4443 31.1401 19.6931 31.3889 19.9999 31.3889C20.3067 31.3889 20.5554 31.1401 20.5554 30.8333V29.7222C20.5554 29.4154 20.3067 29.1666 19.9999 29.1666Z" fill="#9F8772"/>
<defs>
<linearGradient id="paint0_linear" x1="19.9999" y1="34.7222" x2="19.9999" y2="-1.4111" gradientUnits="userSpaceOnUse">
<stop stop-color="#9F8772"/>
<stop offset="1" stop-color="#9F8772"/>
</linearGradient>
</defs>
</svg>
