<svg width="72" height="72" viewBox="0 0 72 72" fill="none" xmlns="http://www.w3.org/2000/svg">
<circle cx="36" cy="36" r="35.5" fill="#FFFDFB" stroke="#3A2110"/>
<g clip-path="url(#clip0)">
<path d="M24.125 55H19.375C18.0656 55 17 53.9344 17 52.625V30.4583C17 29.1489 18.0656 28.0833 19.375 28.0833H24.125C25.4344 28.0833 26.5 29.1489 26.5 30.4583V52.625C26.5 53.9344 25.4344 55 24.125 55ZM19.375 29.6667C18.938 29.6667 18.5833 30.0213 18.5833 30.4583V52.625C18.5833 53.062 18.938 53.4167 19.375 53.4167H24.125C24.562 53.4167 24.9167 53.062 24.9167 52.625V30.4583C24.9167 30.0213 24.562 29.6667 24.125 29.6667H19.375Z" fill="#3A2110"/>
<path d="M46.0273 55H43.125C31.1344 55 25.4819 51.0622 25.2476 50.8944C24.8913 50.6411 24.8106 50.1487 25.0623 49.7924C25.3141 49.4362 25.8081 49.3538 26.1659 49.604C26.2213 49.6436 31.6933 53.4167 43.125 53.4167H46.0273C48.7474 53.4167 51.0464 51.4692 51.4929 48.787L53.3407 37.7037C53.6083 36.0934 53.157 34.4562 52.1025 33.2102C51.0464 31.9641 49.5059 31.25 47.8734 31.25H38.375C38.0837 31.25 37.8177 31.0885 37.6799 30.8336C37.5422 30.5787 37.5548 30.2652 37.7148 30.0213C37.729 29.9992 39.1667 27.7682 39.1667 24.125C39.1667 19.7407 37.0957 18.5833 36 18.5833C35.221 18.5833 34.4167 18.5833 34.4167 22.5417C34.4167 28.5045 26.4034 32.5784 26.063 32.7494C25.6735 32.9457 25.1969 32.7874 25.0022 32.3947C24.8058 32.0052 24.9626 31.5302 25.3537 31.3339C25.4281 31.2959 32.8333 27.5244 32.8333 22.5417C32.8333 19.1201 33.3622 17 36 17C37.6435 17 40.75 18.4883 40.75 24.125C40.75 26.6172 40.1563 28.5203 39.667 29.6667H47.8734C49.9714 29.6667 51.9537 30.585 53.3106 32.1857C54.6675 33.7865 55.247 35.8923 54.9018 37.9617L53.0541 49.0451C52.4793 52.4952 49.5249 55 46.0273 55Z" fill="#3A2110"/>
</g>
<defs>
<clipPath id="clip0">
<rect width="38" height="38" fill="white" transform="translate(17 17)"/>
</clipPath>
</defs>
</svg>
