<svg width="96" height="96" viewBox="0 0 96 96" fill="none" xmlns="http://www.w3.org/2000/svg">
<path d="M47.9996 94.1539C73.4896 94.1539 94.1534 73.4901 94.1534 48C94.1534 22.5099 73.4896 1.84613 47.9996 1.84613C22.5095 1.84613 1.8457 22.5099 1.8457 48C1.8457 73.4901 22.5095 94.1539 47.9996 94.1539Z" fill="#E0CAB6"/>
<path d="M48.0001 94.1539C70.4313 94.1539 88.6154 73.4901 88.6154 48C88.6154 22.5099 70.4313 1.84613 48.0001 1.84613C25.5689 1.84613 7.38477 22.5099 7.38477 48C7.38477 73.4901 25.5689 94.1539 48.0001 94.1539Z" fill="#FFF0E1"/>
<path d="M7.38426 48C7.38426 22.5099 25.5684 1.84613 47.9996 1.84613C22.5095 1.84613 1.8457 22.5099 1.8457 48C1.8457 73.4901 22.5095 94.1539 47.9996 94.1539C25.5684 94.1539 7.38426 73.4901 7.38426 48Z" fill="white"/>
<path d="M48 96C21.4903 96 0 74.5097 0 48C0 21.4903 21.4903 0 48 0C74.5097 0 96 21.4903 96 48C95.9704 74.4973 74.4973 95.9704 48 96ZM48 3.69225C23.5296 3.69225 3.69225 23.5296 3.69225 48C3.69225 72.4704 23.5296 92.3078 48 92.3078C72.4704 92.3078 92.3078 72.4704 92.3078 48C92.2796 23.5412 72.4588 3.72037 48 3.69225Z" fill="#9F8772"/>
<path d="M42.4613 64.6153C42.0426 64.6155 41.6363 64.473 41.3093 64.2114L22.8476 49.4422C22.0545 48.8045 21.927 47.6452 22.5625 46.8502C23.1979 46.0552 24.3568 45.9244 25.1535 46.5576L42.2466 60.2325L70.6204 28.3125C71.2975 27.5503 72.4643 27.4813 73.2265 28.1584C73.9887 28.8354 74.0577 30.0022 73.3806 30.7644L43.8422 63.9952C43.4918 64.3901 42.9891 64.6159 42.4613 64.6153Z" fill="#9F8772"/>
</svg>
