<svg width="16" height="16" viewBox="0 0 16 16" fill="none" xmlns="http://www.w3.org/2000/svg">
<path d="M10.0004 7.11469C9.86656 6.90568 9.70828 6.7078 9.52557 6.52509L9.47532 6.47483C8.10848 5.108 5.89241 5.108 4.52557 6.47483L2.47532 8.52509C1.10849 9.89192 1.10849 12.108 2.47532 13.4749L2.52558 13.5251C3.89241 14.892 6.10849 14.892 7.47532 13.5251L8.00043 13" stroke="white" stroke-width="1.5" stroke-linecap="round" stroke-linejoin="round"/>
<path d="M6 8.88524C6.13386 9.09425 6.29218 9.29212 6.47489 9.47483L6.52515 9.52509C7.89198 10.892 10.108 10.892 11.4749 9.52509L13.5251 7.47483C14.892 6.108 14.892 3.89192 13.5251 2.52509L13.4749 2.47483C12.108 1.108 9.89198 1.108 8.52515 2.47483L8.00001 2.99997" stroke="white" stroke-width="1.5" stroke-linecap="round" stroke-linejoin="round"/>
</svg>
