<svg width="32" height="32" viewBox="0 0 32 32" fill="none" xmlns="http://www.w3.org/2000/svg">
<path d="M16.0032 30.6404C13.6288 30.6404 11.2544 30.6404 8.88001 30.6404C8.08001 30.6404 7.30561 30.5188 6.59201 30.1412C5.43361 29.53 4.76481 28.5572 4.56641 27.2676C4.42561 26.3524 4.50561 25.4308 4.57601 24.5156C4.65921 23.4116 4.85761 22.3236 5.18721 21.2676C5.51041 20.2404 5.97761 19.2868 6.71361 18.4868C7.51361 17.6132 8.52801 17.1876 9.69281 17.066C10.0896 17.0244 10.4256 17.1076 10.752 17.3316C11.2352 17.6644 11.7248 17.994 12.2304 18.2916C13.152 18.8324 14.1536 19.1588 15.216 19.2708C17.1168 19.4724 18.8352 18.9668 20.4 17.898C20.6528 17.7252 20.9184 17.5748 21.1616 17.3924C21.5552 17.0948 21.9776 17.0148 22.464 17.082C23.552 17.2324 24.5024 17.6484 25.2608 18.4548C25.7984 19.0244 26.1824 19.6932 26.4896 20.4068C26.9152 21.3924 27.1392 22.4356 27.3024 23.4916C27.4624 24.522 27.5168 25.5588 27.4912 26.5988C27.4528 28.1188 26.8544 29.338 25.488 30.1028C24.7584 30.5124 23.9552 30.6436 23.1264 30.6436C20.7552 30.6436 18.3808 30.6404 16.0032 30.6404Z" fill="#3A2110"/>
<path d="M16 5.5491C19.3856 5.4787 22.2848 8.3875 22.288 11.8051C22.2912 15.2579 19.4048 18.0835 16.048 18.1059C12.6432 18.1283 9.72801 15.2931 9.72161 11.8275C9.71201 8.3619 12.6272 5.4819 16 5.5491Z" fill="#3A2110"/>
<path d="M23.248 10.7624C23.552 10.8392 23.8304 10.9192 24.112 10.98C25.264 11.2328 26.3968 11.156 27.4912 10.7144C28.0896 10.4712 28.672 10.1896 29.2512 9.90478C29.7504 9.65838 30.2176 9.72878 30.5984 10.1448C30.9952 10.5768 31.184 11.108 31.3248 11.6584C31.5616 12.58 31.6384 13.524 31.664 14.4712C31.6768 14.9384 31.6928 15.4088 31.6544 15.8728C31.5776 16.7784 31.0464 17.3672 30.2464 17.7416C29.7184 17.988 29.1616 18.0872 28.5824 18.0936C27.8976 18.1 27.2096 18.0904 26.5248 18.1C26.3776 18.1032 26.2848 18.052 26.192 17.9464C25.4176 17.0696 24.4736 16.4616 23.3344 16.1896C22.9088 16.0872 22.4704 16.0424 22.0224 15.9688C23.088 14.4072 23.4944 12.6696 23.248 10.7624Z" fill="#3A2110"/>
<path d="M8.76161 10.7461C8.62081 11.6901 8.66241 12.5957 8.87361 13.4949C9.08481 14.3941 9.46561 15.2165 9.98401 15.9717C9.58401 16.0324 9.19361 16.0677 8.81281 16.1509C7.61921 16.4068 6.63041 17.0212 5.82401 17.93C5.72481 18.042 5.62561 18.0996 5.46561 18.0964C4.71361 18.0836 3.96161 18.1028 3.21281 18.0804C2.57921 18.0644 1.98081 17.8948 1.43041 17.562C0.726407 17.1364 0.352007 16.5028 0.329607 15.6932C0.294407 14.4357 0.355207 13.1781 0.611207 11.9429C0.726407 11.3829 0.889607 10.8357 1.22561 10.3589C1.44961 10.0421 1.73441 9.80205 2.13441 9.75405C2.27201 9.73805 2.42881 9.76045 2.55681 9.81805C3.20641 10.1061 3.84001 10.4389 4.49601 10.7077C5.80161 11.2389 7.13281 11.2421 8.47681 10.8357C8.56001 10.8069 8.64321 10.7845 8.76161 10.7461Z" fill="#3A2110"/>
<path d="M10.7712 5.47232C10.832 7.76672 8.944 9.68032 6.6752 9.72832C4.3776 9.77312 2.4608 7.91072 2.4064 5.64192C2.352 3.35072 4.2208 1.39872 6.512 1.35712C8.7968 1.31552 10.7648 3.20672 10.7712 5.47232Z" fill="#3A2110"/>
<path d="M25.4112 9.72519C23.0976 9.72519 21.2192 7.84679 21.232 5.53959C21.2416 3.21319 23.1072 1.36999 25.424 1.36039C27.6832 1.35079 29.6096 3.26759 29.6 5.54279C29.5872 7.85639 27.728 9.72839 25.4112 9.72519Z" fill="#3A2110"/>
</svg>
